<?xml version="1.0" encoding="utf-8"?>
<!-- Generator: Adobe Illustrator 21.1.0, SVG Export Plug-In . SVG Version: 6.00 Build 0)  -->
<svg version="1.1" id="Layer_1" xmlns="http://www.w3.org/2000/svg" xmlns:xlink="http://www.w3.org/1999/xlink" x="0px" y="0px"
	 viewBox="0 0 1200 727.7" style="enable-background:new 0 0 1200 727.7;" xml:space="preserve">
<style type="text/css">
	.st0{fill:#354198;}
	.st1{fill:#FFFFFF;stroke:#EFEFEF;stroke-miterlimit:10;}
	.st2{fill:#FFFFFF;}
	.st3{font-family:'MyriadPro-Regular';}
	.st4{font-size:92.16px;}
	.st5{font-family:'Vivaldii';}
</style>
<rect class="st0" width="1200" height="727.7"/>
<title>fgPtoLogo2</title>
<path class="st1" d="M492.2,307.3c1.4-0.3,2.8-0.6,4-0.9l4-1.2l4-1.5c1.3-0.6,2.7-1.1,4-1.9c2.8-1.4,5.4-3.3,7.7-5.5
	c1.3-1.3,2.4-2.7,3.3-4.2l0.6-1.3c0-0.5,0.4-1,0.5-1.5c0.2-0.6,0.3-1.2,0.4-1.7v-0.5c0-0.2,0-0.5,0-0.7v-1.1
	c-0.2-1.7-0.7-3.5-1.3-5.1c-0.5-1.5-1.2-3-2-4.4c-1.5-2.7-3.3-5.3-5.3-7.6c-2-2.3-4.2-4.4-6.5-6.3c-2.3-1.9-4.7-3.6-7.3-5.2
	c-1.3-0.9-2.4-1.5-3.6-2.1l-3.6-2c-2.2-1.2-4.3-2.6-6.4-4c-1-0.7-1.9-1.5-2.8-2.3l-1.3-1.2l-1.2-1.3c-1.5-1.6-2.7-3.4-3.5-5.4
	c-0.4-0.9-0.6-1.9-0.7-2.8c0-0.5,0-0.9,0-1.4c0-0.2,0-0.4,0-0.6v-0.3c0,0,0-0.2,0,0v-0.5c0.2-0.9,0.4-1.9,0.4-2.9c0.1-1,0.1-2,0-3
	c-0.1-1-0.2-2-0.4-2.9c-0.2-0.9-0.5-1.9-0.8-2.8c-0.7-1.8-1.7-3.4-2.8-4.9c-1.1-1.4-2.4-2.7-3.8-3.8c-2.6-2.1-5.6-3.8-8.7-5.1
	c-1.3-0.6-2.7-1.1-4.1-1.6l-1.6-0.4l5.8-4l5.2-3.6l-4-4.4c-10.1-10.8-20.2-21.3-30.6-32l-3.1-3.3l-3.3,3c-2.3,2-4.5,4-6.7,6.1
	s-4.3,4-6.5,6.2c-4.3,4.2-8.5,8.4-12.6,12.7c-4,4.3-8.1,8.7-12.1,13.1c-4,4.5-7.8,9-11.6,13.7c-1.9,2.3-3.7,4.7-5.5,7
	c-1.8,2.4-3.6,4.8-5.3,7.2c-1.7,2.4-3.5,4.8-5.1,7.3s-3.2,5-4.8,7.6c-1.5,2.5-3,5.2-4.4,7.9c-0.7,1.3-1.4,2.7-2,4
	c-0.6,1.3-1.3,2.7-1.9,4c-1.2,2.7-2.2,5.5-3.2,8.4l-1.3,4.3l-0.9,4.4l1.4-4l1.7-4c1.3-2.7,2.5-5.3,4-7.9c0.7-1.3,1.5-2.5,2.2-3.8
	c0.8-1.3,1.5-2.5,2.3-3.7c1.6-2.5,3.3-4.9,4.9-7.3c1.7-2.4,3.4-4.7,5.3-7c1.8-2.3,3.7-4.6,5.5-6.8s3.8-4.5,5.7-6.7
	c1.9-2.2,4-4.4,5.9-6.6c4-4.3,8.1-8.5,12.1-12.7l6.2-6.2l6.4-6.1c4.3-4,8.6-8.1,13-12.1l6.4-5.9l3.2-2.8
	c7.6,8.1,15.1,16.6,22.7,24.9l-1.9,1.3l-6.7,5.2l-6.3,5.4c-2.1,1.8-4,3.7-6.2,5.6c-2.2,1.9-4,3.8-6.1,5.7s-4,4-5.9,5.8l-5.8,5.9
	l-5.7,6c-1.9,2-3.8,4-5.6,6.1c-1.9,2-3.8,4-5.6,6.1c-3.7,4-7.4,8.1-11,12.3c-7.2,8.4-14.2,16.8-21.1,25.4l-3.6,4.5l5.5,2.8
	c1.1,0.4,2.1,0.9,3.1,1.5c1,0.5,1.9,1.2,2.8,1.9c0.9,0.7,1.7,1.4,2.4,2.3c0.8,0.8,1.4,1.7,2,2.7l0.9,1.5l0.7,1.6
	c0.4,1.1,0.8,2.2,1.1,3.4c0.2,0.6,0.3,1.2,0.4,1.7c0,0.6,0.2,1.2,0.3,1.8c0.1,0.6,0.3,2.5,0.3,3.7c0,1.2,0,2.5,0,3.8s0,2.5-0.3,3.8
	c-0.3,2.6-0.7,5.1-1.3,7.6c-0.6,2.6-1.3,5-2,7.6c-0.4,1.3-0.8,2.3-1.3,3.6c-0.4,1.3-0.9,3.2-1.4,3.2l0,0c-0.1,0.2-0.2,0.5-0.3,0.8
	l5.6,2.9l0,0c0,0.1,0,0.2,0,0.2c-0.1,0.1-0.3,0.2-0.4,0.2c-0.2,0-0.4,0-0.5,0l0,0l0.4,0.3c0.4,0.4,0.8,0.9,1.2,1.3
	c0.4,0.5,0.8,1.1,1.2,1.7c0.8,1.1,1.5,2.5,2.2,3.7c0.7,1.3,1.5,2.6,2.1,4c0.6,1.5,1.3,2.7,1.9,4s1.2,2.8,1.9,4
	c0.7,1.3,1.4,2.9,2.2,4.2c0.8,1.4,1.7,2.7,2.7,4c0.9,1.3,2,2.5,3.2,3.6c1.2,1.1,2.4,2.2,3.6,3.2c1.3,1,2.6,1.8,4,2.6
	c0.7,0.4,1.4,0.8,2.1,1.1l2.2,0.9c0.7,0.3,1.5,0.5,2.2,0.7c0.7,0.3,1.5,0.5,2.3,0.6l2.3,0.4l2.3,0.3c3.1,0.3,6.2,0.2,9.2-0.4
	c-3.2,0.3-6.4,0.1-9.5-0.6l-2.2-0.5l-2.1-0.7c-0.7-0.2-1.4-0.5-2.1-0.8c-0.7-0.3-1.4-0.6-2-0.9l-2-1.1c-0.6-0.4-1.3-0.8-1.9-1.2
	c-1.2-0.8-2.4-1.7-3.4-2.7c-1.1-1-2.1-2.1-3-3.2c-0.9-1.1-1.7-2.3-2.6-3.5c-0.8-1.2-1.4-2.5-2.1-3.8c-0.7-1.3-1.1-2.7-1.7-4
	c-0.6-1.3-1.1-2.9-1.6-4.3c-0.6-1.4-1.1-2.9-1.7-4.4c-0.6-1.5-1.2-2.9-1.9-4.3c-0.6-1.4-1.4-2.9-2.3-4.3c-0.4-0.7-0.9-1.5-1.4-2.1
	c-0.5-0.8-1.1-1.5-1.8-2.1l-1-0.8c0.5-1.2,1-2.3,1.4-3.5c1-2.7,1.9-5.4,2.7-8.1c0.8-2.8,1.4-5.6,1.8-8.5c0.2-1.5,0.4-2.9,0.5-4.4
	s0-3,0.2-4.5c0.2-1.5,0-3,0-4.5c0-0.8,0-1.5-0.3-2.3c-0.1-0.8-0.2-1.5-0.4-2.3c-0.3-1.5-0.8-3.1-1.3-4.5l-0.9-2.2l-1.1-2.1
	c-0.8-1.4-1.7-2.8-2.8-4c-1.1-1.3-2.2-2.5-3.5-3.5l-1.9-1.5l-0.7-0.5c5.9-6.8,11.8-13.6,17.8-20.2l11-12.1c1.8-2,3.7-4,5.5-6
	c1.8-1.9,3.7-4,5.6-5.9l5.7-5.9l5.7-5.7c1.9-1.9,4-3.8,5.8-5.7c1.8-1.9,4-3.8,5.9-5.6c1.8-1.8,4-3.7,5.9-5.5l6.1-5.3l5.9-4.6
	c2,1.1,4,2.4,5.8,3.8c2.5,1.8,4.7,3.9,6.7,6.2c0.9,1.1,1.7,2.3,2.3,3.6c0.3,0.6,0.6,1.2,0.8,1.8c0.2,0.6,0.4,1.2,0.5,1.9
	c0.1,0.6,0.2,1.2,0.2,1.9c0.1,0.6,0.1,1.2,0,1.8c-0.1,0.6-0.2,1.2-0.3,1.8c-0.1,0.5-0.3,1-0.4,1.5l-0.3,0.7c0,0.3,0,0.5-0.2,0.7
	c-0.1,0.5-0.2,0.9-0.3,1.4c-0.2,0.9-0.3,1.8-0.3,2.7c0,1.8,0.2,3.5,0.6,5.3c0.9,3.3,2.5,6.4,4.6,9l1.5,1.9l1.6,1.7
	c1.1,1.1,2.2,2.1,3.4,3.1c2.3,1.9,4.8,3.6,7.4,5.1l3.5,2.1c1.1,0.7,2.5,1.4,3.4,2.1c2,1.3,4,2.8,6,4.4c1.9,1.5,3.7,3.2,5.4,5.1
	c1.6,1.7,3.1,3.6,4.3,5.6c0.6,1,1.1,2,1.6,3c0.4,0.9,0.7,1.8,1,2.7l0,0v0.4l-0.2,0.5c-0.4,0.9-0.9,1.6-1.5,2.3
	c-1.5,1.8-3.3,3.4-5.3,4.7c-1,0.7-2.1,1.3-3.2,2l-3.4,1.8l-3.6,1.7l-3.7,1.5l-0.9,0.4c-0.5,0.2-1,0.4-1.5,0.7
	c-0.8,0.5-1.5,1.1-2.1,1.8c-1.1,1.3-2,2.9-2.4,4.5c-0.7,3-0.6,6.1,0.2,9c0.7,2.7,1.8,5.3,3.2,7.8c-0.5-2.7-0.8-5.4-0.9-8.1
	c-0.1-2.5,0.4-4.9,1.4-7.1c0.5-0.9,1.2-1.7,2-2.3c0.4-0.3,0.8-0.5,1.2-0.6c0.3,0,0,0,0.4,0L492.2,307.3z M511.5,286.7L511.5,286.7
	L511.5,286.7L511.5,286.7c0,0,0,0,0-0.2L511.5,286.7z"/>
<path class="st1" d="M449.3,310.2c0,1,0.3,2,0.4,3.1l0.3,3.6l-2.3,1.1l-3.5,1.6l-3.6,1.7l-1.8,0.8l-0.9,0.4l-0.9,0.4
	c-0.6,0.3-1.3,0.6-1.9,0.9l-1.9,1.1c0.1-0.8,0.2-1.6,0.4-2.3c0.2-0.8,0.5-1.5,0.9-2.2c0.3-0.7,0.7-1.4,1.2-2
	c0.4-0.6,0.9-1.3,1.3-1.9c0.5-0.6,1-1.1,1.5-1.7l1.6-1.6l0.9-0.8c0-0.4-0.2-0.8-0.3-1.3v-2.1c0-0.7,0-1.4,0-2.1c0-0.7,0-1.4,0-2.1
	c0.1-0.7,0.2-1.4,0.4-2.1c0.1-0.7,0.3-1.4,0.6-2.1c0.3-0.7,0.6-1.4,0.9-2.1c0.4-0.6,0.8-1.3,1.2-1.9c0.4-0.6,0.9-1.2,1.5-1.7
	c0.5-0.5,1.1-1,1.7-1.4c0.6-0.4,1.2-0.8,1.8-1.1c0.6-0.3,1.3-0.6,1.9-0.8c0.6-0.2,1.3-0.4,2-0.5c1.3-0.3,2.7-0.3,4,0l-1.4,1.3
	c-0.4,0.4-0.8,0.9-1.2,1.3l-1.1,1.3c-0.3,0.5-0.6,0.8-0.9,1.3c-0.3,0.4-0.5,0.8-0.7,1.3c-0.2,0.4-0.4,0.8-0.6,1.3
	c-0.2,0.4-0.3,0.9-0.4,1.3c0,0.4-0.2,0.9-0.4,1.3c0,0.4-0.1,0.9-0.2,1.3c0,0.4,0,0.9,0,1.3c0,0.5,0,0.9,0,1.4c0,0.5,0,0.9,0,1.4
	c0,0.5,0,1,0,1.5L449.3,310.2z"/>
<path class="st1" d="M397.2,454.4c1.9-2.9,4-5.8,5.7-8.7c0.9-1.5,1.9-2.9,2.8-4.4l2.6-4.5l1.3-2.2l1.1-2.2l2.3-4.3
	c0.7-1.5,1.3-3.2,2-4.8l2-4.8c0.7-1.8,1.6-3.6,2.6-5.3c1.1-1.7,2.3-3.3,3.6-4.8c0.7-0.8,1.4-1.5,2.1-2.1c0.7-0.7,1.5-1.4,2.3-1.9
	c3.4-2.5,7.2-4.4,11.3-5.4c1-0.3,2-0.5,3-0.6h1.6h0.9l9.6-2.7l10.1-2.8l2.6-0.7l2.1-0.6l2.1-0.8l2.1-0.9c1.4-0.7,2.7-1.4,4-2.2
	c0.6-0.4,1.2-0.8,1.8-1.3c0.6-0.4,1.2-0.9,1.7-1.4c0.6-0.4,1.1-0.9,1.5-1.5l0.7-0.8l0.6-0.8l0.6-0.8l0.4-0.8c0.3-0.5,0.6-1,0.7-1.6
	c0.2-0.5,0.3-1,0.4-1.5c0-0.5,0-1,0-1.5s0-1-0.3-1.4c-0.2-0.4-0.3-0.8-0.4-1.2l-1.6-2.5l-1.5-2c-0.6-0.8-1.1-1.7-1.6-2.5
	s-1-1.8-1.5-2.7c-1-2.1-1.7-4.4-1.9-6.8c-0.1-1.5,0.1-3,0.5-4.4c0.3-0.8,0.7-1.6,1.2-2.3c0.3-0.4,0.6-0.8,0.9-1.1
	c0.4-0.5,0.9-0.8,1.5-1.2l3.3-0.5h0.8l0,0c0.1-0.1,0.2-0.3,0.3-0.4c0-0.1,0-0.3,0-0.4c0-0.2,0-0.3,0-0.5c0-0.4,0-0.8,0-1.3
	c0-0.5,0-1,0-1.5v-1.4l0,0l0,0l-0.2-1.5c0-0.4-0.2-0.9-0.4-1.3c-0.1-0.3-0.3-0.7-0.4-1c-0.1-0.2-0.2-0.4-0.4-0.6l0,0h-0.2
	c-0.3,0-0.5,0-0.8,0c-0.4,0-0.8,0.1-1.1,0.2c-0.4,0.1-0.8,0.3-1.1,0.4l-0.7,0.4c-5.9,1.8-11.8,3.4-17.7,5.1l-8.9,2.4
	c-3,0.8-5.9,1.5-8.9,2.2c2.7-1.4,5.4-2.8,8.1-4l8.3-4c5.4-2.5,10.8-4.9,16.2-7.3c0.6-0.4,1.3-0.8,2-1.1c0.8-0.4,1.6-0.6,2.5-0.8
	c1-0.2,2-0.2,3,0c0.5,0.1,1.1,0.2,1.6,0.4c0.5,0.2,1,0.5,1.5,0.7c0.9,0.6,1.7,1.3,2.3,2.1c0.6,0.7,1.1,1.5,1.5,2.3
	c0.4,0.8,0.6,1.5,0.9,2.3c0.3,0.8,0.4,1.5,0.5,2.2v0.3v0.4v0.5v0.9c0,0.8,0,1.6,0,2.3c0.1,0.8,0.1,1.7,0,2.5
	c-0.1,0.4-0.2,0.9-0.3,1.3c-0.1,0.5-0.2,1-0.4,1.4c-0.4,1-0.9,2-1.6,2.8c-1.4,1.7-3.3,2.8-5.5,3.2c0.2,1.1,0.6,2.2,1.2,3.2
	c0.3,0.6,0.7,1.2,1.1,1.8c0.4,0.6,0.8,1.3,1.3,1.9l0.7,0.9l0.4,0.4v0.2l0,0l0.4,0.5l1.5,2.1c0.7,1.2,1.2,2.4,1.7,3.6
	c0.4,1.2,0.6,2.4,0.9,3.7c0.1,1.3,0.1,2.5,0,3.8c-0.1,1.2-0.4,2.4-0.8,3.6c-0.4,1.1-0.8,2.2-1.4,3.2l-0.9,1.5
	c-0.3,0.5-0.6,0.9-0.9,1.3l-1,1.3l-1.1,1.2c-0.7,0.8-1.4,1.5-2.2,2.2c-0.7,0.7-1.5,1.3-2.3,1.9c-0.8,0.6-1.6,1.2-2.5,1.7
	c-1.7,1.1-3.4,2.1-5.2,2.9l-2.7,1.2l-2.8,1l-2.9,0.8l-2.5,0.6l-10.2,2.6l-8.8,1.8l-1,0.2h-0.5h-0.8h-1c-0.7,0-1.4,0-2.1,0.3
	c-1.4,0.3-2.7,0.7-4,1.2c-1.3,0.5-2.6,1.2-3.8,2c-0.6,0.4-1.2,0.8-1.8,1.3c-0.6,0.4-1.1,0.9-1.7,1.4c-1.1,1-2.1,2.2-3,3.4
	c-0.9,1.3-1.7,2.6-2.4,4l-2.5,4.7c-0.9,1.5-1.6,3.1-2.6,4.6l-3.1,4.6l-1.5,2.3L413,440l-3.3,4c-1.1,1.4-2.3,2.7-3.5,4
	s-2.3,2.7-3.6,4l-3.7,3.8c-2.5,2.5-5.1,4.9-7.8,7.2l3.1-4.3C395.2,457.3,396.2,455.9,397.2,454.4z"/>
<path class="st1" d="M476.7,347.2L476.7,347.2C476.7,347.2,476.5,347.2,476.7,347.2z"/>
<path class="st1" d="M432.4,260.6c-1.5,0.5-3.1,0.9-4.7,1.2c-1.6,0.3-3.3,0.4-4.9,0.4c-1.6,0-3.2-0.2-4.7-0.5c1.6-0.2,3.2-0.6,4.7-1
	c0.7-0.2,1.5-0.4,2.1-0.7s1.4-0.6,2.1-0.8c1.4-0.6,2.7-1.2,4-1.9c1.3-0.7,2.6-1.5,3.8-2.3c2.5-1.6,4.9-3.4,7.2-5.3
	c1.2-0.9,2.3-1.9,3.4-2.9l0.6-0.6c-1.3-0.6-2.7-1-4-1.3c-2.7-0.5-5.4-0.5-8.1,0c-1.4,0.3-2.7,0.6-4,1c-1.4,0.4-2.7,0.9-4,1.5
	c-2.7,1.2-5.3,2.5-7.8,4c1.9-2.4,4.1-4.5,6.6-6.3c1.3-0.9,2.6-1.7,4-2.4c0.7-0.3,1.4-0.6,2.2-0.8l2.2-0.8c4.7-1.7,9.8-1.7,14.5,0
	c0.8,0.3,1.6,0.6,2.3,1c0.8,0.4,1.5,0.8,2.1,1.2l2.8,1.6l-2.3,2.5c-0.6,0.6-1.2,1.2-1.7,1.8l-1.8,1.6c-1.2,1.1-2.5,2.1-3.8,3
	c-2.5,1.9-5.2,3.6-8.1,5C435.4,259.4,433.9,260,432.4,260.6z"/>
<path class="st1" d="M383.4,452.4l0.2-1.2c0-0.8,0.4-1.9,0.7-3.3c0.4-1.4,0.7-3.2,1.3-5.1c0.6-2,1.1-4,2-6.6
	c0.9-2.5,1.9-4.9,3.1-7.5c0.6-1.3,1.2-2.7,1.9-4s1.5-2.7,2.3-4c0.8-1.4,1.6-2.8,2.5-4c0.4-0.7,0.8-1.4,1.3-2.1l1.5-2
	c1-1.3,2-2.7,3.1-4l1.6-2c0.6-0.6,1.2-1.3,1.8-1.9c2.4-2.6,4.9-4.9,7.6-7c1.4-1.1,2.8-2.1,4-3.1l4.3-2.9l2.1-1.2l2.3-0.9
	c1.5-0.6,3-1.2,4.4-1.6l4.4-1c1.3-0.2,2.7-0.4,4-0.5h1.9h1.9c1.1,0,2.3,0.1,3.4,0.3c1.1,0,2,0.4,2.9,0.6l2.4,0.8
	c1.1,0.4,2.2,0.9,3.2,1.4c0.4,0.2,0.7,0.4,1,0.6h-1.2c-0.8,0-1.9,0-3.3,0l-2.3,0.2l-2.7,0.5c-1,0.2-2,0.4-3,0.7l-1.3,0.3l-1.6,0.6
	c-1.1,0.4-2.2,0.8-3.3,1.3l-3.4,1.6c-1.1,0.6-2.3,1.3-3.4,2l-1.7,1.1l-1.7,1.3c-1.1,0.9-2.3,1.7-3.5,2.5c-1.2,0.8-2.2,2-3.3,3
	c-2.2,2-4.4,4.2-6.4,6.4l-1.6,1.6l-1.5,1.8c-1,1.2-2,2.3-3,3.5c-2.1,2.2-3.7,4.9-5.6,7.2c-0.9,1.2-1.8,2.3-2.7,3.4
	c-0.9,1.1-1.6,2.3-2.4,3.5c-1.6,2.3-3.1,4.4-4.6,6.4c-0.8,1-1.4,1.9-2,2.9l-1.8,2.6c-1.1,1.7-2.2,3-3.1,4c-0.9,1-1.6,2.1-2.1,2.7
	L383.4,452.4z"/>
<path class="st1" d="M366.5,349.8L366.5,349.8C366.5,349.8,366.5,349.9,366.5,349.8z"/>
<path class="st1" d="M352.9,296.1c2.9,1.1,5.6,2.6,8.1,4.4c5.3,4,9.2,9.5,11.2,15.7c0.5,1.6,0.9,3.3,1.1,5v1.3c0,0.5,0,0.7,0,1.1
	l1.1,2.1c0,0.6,1,0,1,0.4l0,0h-1l-0.2,0.7l-0.3,0.6v1.3c-0.1,0.8-0.2,1.7-0.4,2.5c-0.3,1.7-0.6,3.3-1.2,4.9
	c-2,6.3-5.9,11.8-11.2,15.7c-2.5,1.9-5.2,3.3-8.1,4.4c-2.8,1-5.7,1.6-8.7,1.8c-1.3,0.1-2.7,0.1-4,0h-0.6h-0.5h-1c-0.6,0-1.3,0-2-0.3
	c-4.9-1.1-9.4-3.4-13.3-6.6c-3.1-2.5-5.7-5.5-7.7-9c-1.5-2.6-2.7-5.4-3.4-8.3l-0.4-1.7c0-0.5,0-1.1-0.2-1.5
	c-0.1-0.8-0.2-1.6-0.2-2.4v-2v2c0,0.8,0.1,1.6,0.3,2.4c0,0.5,0,1,0.2,1.5l0.5,1.7c0.9,2.9,2.2,5.7,4,8.1c2.2,3.1,5,5.7,8.3,7.6
	c3.8,2.1,8,3.3,12.4,3.3c0.6,0,1.1,0,1.7,0c0.5,0,1.1,0,1.6,0c1.2-0.1,2.4-0.4,3.6-0.7c2.2-0.7,4.4-1.7,6.4-3c2-1.1,3.8-2.5,5.5-4
	c1.6-1.7,2.9-3.5,4-5.5c1.1-2.1,2-4.3,2.6-6.6c0.3-1.1,0.5-2.3,0.6-3.4c0-0.6,0-1.2,0-1.7v-1.3l-0.7-0.2h-0.7l0,0l0.6-1.9
	c0-0.3,0.3-0.8,0.3-1v-0.8c-0.1-1.1-0.3-2.2-0.5-3.2c-0.6-2.2-1.5-4.4-2.6-6.4c-1.1-2-2.5-3.8-4-5.5c-1.6-1.6-3.5-2.9-5.5-4
	c-2-1.2-4.1-2-6.4-2.6c-1.1-0.3-2.2-0.5-3.4-0.6h-1.7c-0.6,0-1.3,0-1.8,0c-1.1,0-2.2,0.1-3.2,0.2l-1.6,0.2l-1.6,0.4
	c-2,0.6-4,1.4-5.8,2.4c-3.3,1.9-6.1,4.5-8.3,7.5c-1.8,2.4-3.2,5.2-4,8.1l-0.5,1.7c0,0.5,0,1.1-0.3,1.5c-0.2,0.8-0.2,1.6-0.3,2.4v2
	v-2c0-0.8,0.1-1.6,0.2-2.4c0-0.5,0-1,0.2-1.5l0.4-1.7c0.7-2.9,1.8-5.7,3.4-8.3c3.2-5.5,7.9-9.9,13.7-12.7l1.7-0.8l1.8-0.6
	c1.3-0.4,2.7-0.8,4-1.1C341.6,294.2,347.5,294.4,352.9,296.1z"/>
<path class="st1" d="M273.4,490.6v-0.3V490.6L273.4,490.6z"/>
<path class="st1" d="M233.3,483.7L233.3,483.7L233.3,483.7L233.3,483.7z"/>
<path class="st1" d="M88.9,252.5l0.9,1.2l2.7,3.5c0.9,1.1,1.9,2.2,3,3.2l1.5,1.5c0.5,0.5,1.1,0.9,1.6,1.3c0.5,0.4,2.1,1.8,3.3,2.6
	l3.4,2.3c1.1,0.7,2.4,1.3,3.6,2c1.2,0.6,2.4,1.2,3.6,1.7s2.4,1.1,3.6,1.6l3.7,1.4l3.7,1.3c1.3,0.4,2.5,0.7,3.8,1.1s2.5,0.6,3.8,0.9
	l4.5,0.9l-2.8,2.1c-2.2,1.7-4.2,3.5-6.2,5.5c-2,1.8-4,3.8-5.8,5.8c-1.9,2-3.5,4-5.2,6.3s-3.2,4.4-4.5,6.7c-2.9,4.5-5.5,9.2-7.7,14.1
	c-1.1,2.4-2.1,4.9-3.1,7.4c-1,2.5-1.8,4.9-2.5,7.8l-0.8,3.1l2,1.8c1.2,1.1,2.5,2,4,2.7c1.2,0.5,2.5,0.8,3.8,1.1
	c2.3,0.5,4.6,0.8,7,0.8c4.4,0.1,8.8-0.1,13.2-0.5c4-0.4,8.4-1.1,12.5-1.8c-3.4,4.4-6.4,9.2-8.7,14.3c-2.3,5.3-3.9,10.9-4.5,16.6
	c-0.7,5.8-0.2,11.7,1.2,17.3c0.7,2.8,1.7,5.5,2.9,8.1c0.6,1.3,1.3,2.5,2,3.8c0.4,0.6,0.7,1.2,1.2,1.8l0.6,0.9l0.8,1l2.5,3.4l3.6-2
	l2.1-1.2l2.4-1.1l2.8-0.8c0.9-0.3,1.8-0.5,2.8-0.8l2.8-0.8l2.8-0.7c1.9-0.4,3.8-0.8,5.8-1.2l5.9-1.1l5.9-1l4-0.6v1.8l-0.7,6.4
	c-0.5,4.3-0.8,8.6-1.3,12.9c-0.4,4.3-0.8,8.7-1.1,12.8c-0.3,4.2-0.6,8.5-0.8,12.7c-0.3,4.3-0.4,8.5-0.7,12.7l-0.4,7l6.3-0.8
	c1.3,0,2.3-0.4,3.4-0.6l3.3-0.6c2.2-0.5,4.4-1,6.5-1.6c4.3-1.2,8.6-2.7,12.7-4.6c3.7-1.6,7.1-3.7,10.3-6.2c0,1.9,0.1,3.8,0.4,5.7
	c0.1,1,0.3,2,0.5,3c0.2,1,0.4,1.9,0.6,2.9c0.3,1,0.6,1.9,0.9,2.9c0.3,1,0.6,1.9,1.1,2.8l1.2,2.8c0.5,0.9,1,1.7,1.5,2.6
	c0.5,0.9,1.1,1.7,1.7,2.5c0.6,0.8,1.2,1.6,1.8,2.4c1.2,1.5,2.6,3,4,4.3c0.7,0.7,1.5,1.3,2.3,1.9c0.9,0.7,1.8,1.3,2.8,1.8l6.3-1.7
	l0.2-0.4c0.3-0.4,0.6-0.8,0.9-1.1c0.3-0.4,0.8-0.8,1.1-1.2l1.2-1.2c1.7-1.6,3.4-3.2,5.2-4.7l7-6.3c0.3,1.2,0.6,2.3,0.9,3.5
	c0.3,1.2,1.1,3,1.9,4.4c0.7,1.4,1.5,2.8,2.5,4l1.4,1.9l1.6,1.7c1.1,1.1,2.2,2.2,3.4,3.2c1.2,1,2.5,1.9,3.8,2.7
	c1.4,0.8,2.8,1.5,4.3,2.1l4.5-2.4c0,0.1,0,0.2,0,0.3l0,0c0.3-0.4,0.6-0.7,0.9-1.1c0.7-0.7,1.6-1.5,2.4-2.2c1.7-1.5,3.6-3,5.4-4.4
	l5.6-4.3l1.1-0.8l0,0l0.9,2.1c0.3,0.7,0.6,1.4,1,2.1c1.4,2.8,3.4,5.4,5.7,7.6l1.9,1.5l2,1.3c0.7,0.4,1.4,0.8,2.2,1.2
	c0.8,0.4,1.7,0.7,2.6,1l1.9,0.6l1.7-0.9l4.4-2.3c1.4-0.9,2.9-1.7,4.3-2.6c1.4-0.9,2.8-1.9,4-3c0.7-0.5,1.4-1.1,2-1.6l1.9-1.8
	c1.3-1.2,2.5-2.6,3.6-4c0.6-0.8,1.1-1.6,1.5-2.4c0.5-0.8,0.9-1.7,1.2-2.6c0.7-1.8,1.1-3.7,1.3-5.7c0-0.9,0-1.9,0-2.8
	c0-0.9,0-1.8-0.3-2.7c-0.3-1.7-0.6-3.4-1.1-5.1l-0.3-1.1v-0.6v-0.5c-0.2-0.6-0.4-1.3-0.5-2c-0.3-1.4-0.6-2.9-0.7-4.4
	c0-0.8,0-1.5,0-2.3c0,1.2,0.3,2.4,0.5,3.6l0.6,2.8c0.2,0.9,0.5,1.9,0.8,2.8c0.3,0.9,0.6,1.9,0.9,2.8c0.4,0.9,0.6,1.8,1.1,2.7
	c0.5,0.9,0.9,1.8,1.3,2.7l1.5,2.6l1.8,2.5c0.6,0.8,1.3,1.5,2,2.3c0.7,0.8,1.5,1.4,2.2,2.1c0.7,0.7,1.6,1.3,2.4,1.9l2.6,1.7
	c0.9,0.5,1.8,1,2.7,1.4c1.8,0.9,3.7,1.6,5.7,2.1c1.9,0.5,3.9,1,5.8,1.2c1.9,0.3,3.9,0.4,5.9,0.4c1,0,1.9,0,3,0
	c1.1-0.1,2.1-0.2,3.2-0.4l3.4-8.5l0,0l0,0l-0.3-0.6l-0.3-0.6c0-0.2,0-0.5-0.2-0.7l-0.5-1.5c-0.2-0.5-0.4-1-0.5-1.5l-1.1-3.7
	c-0.3-1.1-0.5-2.3-0.7-3.4l-0.8-3.5c0-1.2-1.1-2.4-1.1-3.6v-3.6c0-1.2,1.1-2.4,1.3-3.6l1.8-7.1c0.2-2.5,0.5-4.9,1-7.4l1.2-7.5
	l1.2-7.6c0.5-2.6,0.5-5.3,0.7-7.9c0.1-1.3,0.1-2.7,0-4v-4c0-1.3-0.2-2.6-0.4-4c-0.1-1.4-0.2-2.6-0.5-4c-0.4-2.6-1-5.2-1.7-7.7
	c-0.7-2.5-1.6-5-2.6-7.4l-1.6-3.6c-0.6-1.2-1.3-2.3-1.9-3.4c-1.3-2.2-2.8-4.3-4.4-6.4c-1.6-2-3.4-3.8-5.4-5.5c1.5,2,2.9,4.1,4,6.4
	c0.6,1.1,1.1,2.2,1.7,3.4c0.5,1.1,1,2.3,1.4,3.4l1.2,3.5l1.1,3.5c0.6,2.4,1.1,4.8,1.4,7.2c0.4,2.4,0.5,4.8,0.7,7.2
	c0,1.2,0,2.4,0,3.6s0,2.4,0,3.6l-0.3,3.6c-0.1,1.2-0.2,2.4-0.4,3.6c-0.4,2.4-0.6,4.8-1.3,7.1l-3.4,14.7c-0.6,2.5-1.1,5-1.5,7.6
	l-1,8.1c-0.2,1.3-0.3,2.7-0.3,4v4c0,1.3,0,2.6,0,4l0.3,4c0.1,1.4,0.2,2.7,0.4,4l0.8,4c0,0,0,0.4,0,0.6h-1.9
	c-1.5-0.2-2.9-0.5-4.3-0.9c-1.4-0.4-2.7-0.9-4-1.5c-0.6-0.3-1.3-0.6-1.9-0.9l-1.8-1.1l-1.7-1.3c-0.5-0.5-1.1-0.9-1.6-1.4l-1.5-1.6
	l-1.3-1.7l-1.2-1.8c-0.4-0.6-0.7-1.3-1.1-1.9c-0.3-0.7-0.7-1.4-0.9-2.1c-0.3-0.7-0.6-1.4-0.9-2.1c-0.2-0.7-0.5-1.5-0.7-2.2l-0.6-2.3
	c-0.4-1.5-0.6-3.1-0.9-4.7s-0.4-3.2-0.5-4.8s-0.4-3.3-0.4-4.9c0-1.7,0-3.3,0-5c0-1.7,0-3.4,0.2-5l0.4-5.1v0.3c0.2-1.1,0.4-2,0.5-3
	l0.4-3c0.2-2,0.4-3.9,0.6-5.9c0.3-3.9,0.3-7.9,0-11.9c-0.2-3.9-0.9-7.8-2.1-11.6c-0.3-0.9-0.7-1.9-1.1-2.8c-0.4-0.9-0.9-1.8-1.4-2.6
	c-0.5-0.8-1.1-1.6-1.8-2.4l-1.1-1.1l-1.1-0.9l0.9,1.1l0.8,1.2c0.5,0.8,0.9,1.7,1.2,2.5c0.3,0.9,0.6,1.8,0.8,2.7
	c0.2,0.9,0.4,1.8,0.5,2.8c0.4,3.7,0.4,7.5,0,11.2c-0.3,3.7-0.8,7.5-1.6,11.1c-0.4,1.8-0.8,3.7-1.2,5.5l-0.7,2.7
	c-0.2,0.9-0.5,1.8-0.7,2.6l0,0v0.3l-1,5.3c-0.3,1.7-0.5,3.6-0.7,5.3c-0.2,1.7-0.3,3.2-0.4,4.8c-0.2,0.5-0.5,1-0.7,1.5
	c-0.6,1.5-1.2,3-1.7,4.5c-0.5,1.5-1,3.1-1.4,4.7c-0.9,3.3-1.3,6.6-1.2,10c0,0.9,0.1,1.8,0.2,2.7v0.7v0.6v1.2c0.2,1.3,0.4,2.7,0.4,4
	c0,0.7,0,1.3,0,2s0,1.3-0.3,1.9c-0.2,1.2-0.7,2.3-1.2,3.4c-0.6,1.1-1.3,2.1-2.1,3c-0.9,1-1.8,1.9-2.8,2.8l-1.6,1.3
	c-0.5,0.4-1.2,0.8-1.7,1.2s-2.5,1.5-3.7,2.3c-1.2,0.8-2.6,1.4-4,2.1l-1.9,0.9l-0.7-0.4l-1.1-0.9l-1.1-1c-0.7-0.7-1.3-1.4-1.9-2.2
	c-0.2-0.4-0.6-0.8-0.8-1.2l0-1.3c-0.5-0.9-0.9-1.8-1.3-2.8c-0.3-1-0.7-2-1-3s-1.1-2.1-1.3-3.2c-0.2-1.1-1.4-2.2-1.4-3.4v-1.7
	l1.5-1.7c0-1.1,1.3-2.3,1.5-3.5l0.8-3.5c0.2-1.2,0.5-2.3,0.8-3.5l2-7.3l2-7.4c0.8-2.5,1.4-5,1.9-7.5l1.4-7.9c0-1.3,0.5-2.6,0.6-4
	l0.4-4l0.7-7.8c0-2.6,0-5.2,0-7.8s0-5.2-0.2-7.8c-0.2-2.6-0.4-5.2-0.7-7.8c0-1.3-0.2-2.6-0.5-4c-0.2-1.3-0.4-2.5-0.7-3.8
	c0,2.6-0.4,5.1-0.7,7.7l-0.4,3.8l-0.6,3.8c-0.4,2.5-0.6,5-1.2,7.5c-0.5,2.5-0.9,5-1.3,7.5l-1.7,7.4l-0.8,3.7c-0.2,1.2-0.6,2.4-1,3.6
	l-1.9,7.2c-0.6,2.3-1.5,4.8-2.3,7.2l-2.4,7.3l-2.4,7.4c-0.4,1.3-0.8,2.7-1.1,4l-0.9,4c-0.2,1.4-0.4,2.8-0.5,4l-0.2,2.1v2.1
	c-0.1,1.4-0.1,2.9,0,4.3c0,1.5,0.3,3,0.5,4.4l0.6,2.6l-1.7,0.6c-2.2,0.9-4.4,1.8-6.6,2.8c-2.2,1.1-4.3,2.1-6.5,3.2
	c-1.1,0.6-2.1,1.3-3.2,2l-0.8,0.6l-0.9-0.7c-0.9-0.8-1.8-1.6-2.7-2.5c-1.6-1.7-3-3.7-4-5.7c-0.6-1-1.1-2.1-1.5-3.2
	c-0.4-1.1-0.7-2.2-1.1-3.3l-0.6-3.4v-3.5c0-1.2,0-2.4,0.2-3.6c0.2-1.2,0.4-2.4,0.6-3.6c0.2-1.2,0.5-2.4,0.9-3.6
	c0.4-1.2,0.6-2.5,1.1-3.5c1-2.6,1.9-5.2,2.8-7.8l1.4-4l1.5-3.8c1-2.5,1.9-5,2.9-7.5l3-7.6l5.9-15.3l3-7.7c1-2.5,1.9-5.2,2.9-7.8
	s1.9-5.2,2.8-7.8s1.8-5.2,2.7-8.1c-3.4,4.4-6.6,9-9.6,13.7c-1.5,2.3-3,4.7-4.4,7.1c-1.5,2.4-2.9,4.8-4,7.2l-4,7.3
	c-1.3,2.4-2.5,4.9-3.8,7.4c-1.3,2.5-2.5,4.9-3.6,7.5c-1.2,2.6-2.3,5.1-3.4,7.7l-1.7,4c-0.5,1.3-1,2.6-1.5,4
	c-0.9,2.6-1.9,5.2-2.8,7.8c-0.6,1.5-0.9,3-1.3,4.4c-0.4,1.5-0.8,2.9-1,4.5c0,1.5-0.5,3-0.6,4.6v4.7c0,1.3,0.3,2.6,0.5,4l-2.7,1
	c-2.3,0.9-4.5,1.8-6.7,2.8s-4.4,2.1-6.6,3.3l-1.7,0.9l-1.1,0.7l-0.7-0.9c-0.9-1.2-1.7-2.4-2.3-3.8c-1.4-2.6-2.5-5.3-3.2-8.1
	c-0.4-0.6-0.7-1.2-1-1.9c0-0.7-0.3-1.4-0.4-2.1c0-1.5-0.4-2.9-0.3-4.4c-0.1-1.5-0.1-3,0-4.5c0.1-1.5,0.2-3,0.5-4.5
	c0.3-1.5,0.4-3,0.8-4.5l1-4c1-3.1,2.2-6.2,3.6-9.3c0.6-1.4,1.1-2.7,1.9-4s1.5-2.9,2.2-4.4c1.4-3,3.2-5.8,4.7-8.8l5.1-8.7l5.3-8.7
	l10.8-17.5l5.4-8.8l5.5-8.9c3.6-5.9,7.1-12.1,10.4-18.3c-5.6,4.3-10.9,9-15.9,13.9c-5.1,4.9-9.9,10-14.6,15.2
	c-2.4,2.6-4.6,5.3-6.8,8.1c-2.2,2.8-4.4,5.5-6.6,8.1c-2.2,2.6-4,5.7-6.2,8.6c-2.2,2.9-4,5.9-5.8,8.9c-0.9,1.5-1.9,3.1-2.8,4.7
	c-0.9,1.5-1.8,3.1-2.6,4.7s-1.7,3.2-2.5,4.9c-0.8,1.6-1.5,3.6-2.3,5.3c-1.4,3.3-2.6,6.7-3.6,10.2l0,0v0.4l0,0l0,0v0.4v0.7l-0.3,1.4
	l-0.6,2.8c-0.4,1.9-0.4,4-0.6,5.8c0,0.5,0,1,0,1.5l-0.9,0.5c-3.7,1.8-7.6,3.2-11.6,4c-4,0.9-8.1,1.5-12.1,1.9l-5.2,0.4
	c0.4-2,0.7-4,1.1-6.1c0.7-4,1.5-8.3,2.1-12.5l2-12.4c0.6-4,1.3-8.1,1.8-12.1l0.8-6.2l0.2-1.8c1.2-1.1,2.6-2.4,4-3.6l4.7-4
	c3.2-2.7,6.4-5.3,9.7-8.1l9.8-8.1l19.5-16.2l9.7-8.1l2.4-1.9l0,0l0.4-0.3l0.3-0.3l0.6-0.5l1.2-1.1l2.7-2.6c0.8-0.9,1.5-1.7,2.3-2.5
	c5.6-6.6,10.8-13.6,15.5-20.8c4.7-7.1,9.2-14.4,13.2-22c-6.3,5.9-12.1,11.9-18.4,17.8c-3,3-6,5.9-9.1,8.8s-6.1,5.7-9.1,8.4
	c-0.8,0.6-1.5,1.4-2.3,1.9l-2.1,1.6l-1.3,0.9l-0.6,0.4l-0.3,0.2h0.2l0,0l0,0l-2.8,1.8c-3.6,2.4-7.2,4.7-10.7,7.2
	c-3.5,2.4-7,4.9-10.4,7.4c-3.4,2.5-6.9,5-10.3,7.6c-3.4,2.6-6.8,5.1-10.1,7.8c-3.3,2.7-6.7,5.3-10,8.1l-4.9,4
	c-1.7,1.5-3.3,2.9-5.1,4.7l-0.7,0.8L182,390l-0.2,0.2l-0.5,0.7c-0.4,0.5-0.7,1-1,1.5l-0.4,0.8l0,0l0,0c-0.2,0.7,0.4-1.5-0.5,1.5
	l-4.2-0.4c-4-0.2-8.1-0.5-12.1-0.5c-2,0-4,0-6.2,0h-3.1c-1.1,0-2.1,0-3.1,0.3c-1.1,0.3-2.1,0.2-3.2,0.4l-3.2,0.6l-1.9,0.5
	c-0.4-0.9-0.7-1.9-1.1-2.8c-2-6.2-2.4-12.8-1.2-19.3c0.9-4.2,2.4-8.3,4.4-12.1c2.2-3.9,4.8-7.6,7.6-11c0.8-1.1,1.6-1.7,2.3-2.5
	c0.7-0.8,1.5-1.6,2.4-2.4c1.7-1.7,3.4-3.2,5.2-4.9c3.6-3.2,7.4-6.3,11.2-9.3s7.8-6,11.7-8.9c2-1.5,4-2.9,6-4.3l5.1-3.3
	c4-2.8,8.1-5.6,12.1-8.4l12.4-8.1l12.6-8.1c4-2.6,8.5-5.3,12.7-7.9c8.5-5.2,17.1-10.2,25.9-14.9c4.4-2.4,8.9-4.6,13.4-6.7
	c4.2-2,8.4-3.7,12.8-5.1c0,0.4,0,0.8,0,1.1c0,1,0.2,2,0.4,2.9c0.2,0.9,0.5,1.8,0.9,2.7c0.4,0.9,0.8,1.7,1.3,2.5
	c0.5,0.7,1.1,1.5,1.7,2.1c0.6,0.7,1.2,1.3,1.9,1.9c0.6,0.6,1.4,1.1,2,1.6l2.1,1.4l2.2,1.2l-1.8-1.8l-1.6-1.9c-0.5-0.7-1-1.3-1.4-2
	c-0.4-0.7-0.8-1.4-1.2-2.1c-0.4-0.7-0.7-1.4-1-2.1c-0.2-0.7-0.4-1.4-0.6-2.2c-0.1-0.7-0.1-1.4,0-2.1c-0.1-0.7-0.1-1.4,0-2.1
	c0.1-0.7,0.3-1.4,0.5-2c0.2-0.7,0.5-1.3,0.8-1.9c0.6-1.3,1.4-2.5,2.3-3.6c0.9-1.1,2-2.2,3.1-3.2l1.7-1.4c0.5-0.4,1.1-0.8,1.7-1.2
	l2.7-1.6l-1.5-3.8l-0.7-1.8l-0.2-1.8c0-0.6-0.3-1.2-0.4-1.7c-0.1-0.5-0.2-1.1-0.2-1.7c0-0.5,0-1,0-1.5c0-0.9,0.2-1.7,0.5-2.5
	c0.2-0.3,0.4-0.7,0.6-1c0.5-0.6,1.1-1.2,1.7-1.6c0.8-0.5,1.7-1,2.6-1.3c1-0.4,2.1-0.7,3.2-0.9l1.7-0.3h1.5h7.7l-2.7-8.5l-0.8-3.8
	l-0.3-1.8c-0.1-0.6-0.2-1.2-0.2-1.8v-1.7c-0.1-0.6-0.1-1.1,0-1.7c0-0.5,0-1.1,0-1.6c0-0.5,0.1-1,0.3-1.5c0-0.4,0.4-0.9,0.5-1.3
	c0.2-0.4,0.4-0.9,0.6-1.3c0.2-0.4,0.5-0.8,0.8-1.2c0.3-0.4,0.6-0.8,0.9-1.1c0.3-0.4,0.7-0.7,1.1-1c0.4-0.3,0.8-0.6,1.2-0.9
	c0.4-0.3,0.8-0.5,1.3-0.7l0.6-0.3h0.2l0,0l4.7-6.7v-1.6c-0.1-0.5-0.1-1,0-1.5c0-0.5,0.2-0.9,0.3-1.4c0.2-0.5,0.6-0.9,1-1.3
	c0.1-0.4,0.3-0.8,0.5-1.2c0.2-0.3,0.4-0.7,0.6-1.1l0.8-0.9c0.2-0.4,0.6-0.6,0.9-0.8c0.3-0.3,0.7-0.6,1.1-0.8l0.6-0.4l0.6-0.3
	c0.4-0.2,0.9-0.4,1.3-0.6c0.5-0.2,1-0.4,1.5-0.5c1-0.3,2.1-0.5,3.2-0.7h1.7h1.4l7.5-0.2v-7.1v-3.4v-1.5c0-0.5,0-1,0-1.5l0.3-1.4
	c0.1-0.4,0.2-0.9,0.4-1.3c0.1-0.4,0.3-0.8,0.5-1.1c0.2-0.3,0.4-0.7,0.6-1l0.7-0.9l0.9-0.8c0.3-0.2,0.6-0.4,1-0.7
	c0.3-0.3,0.7-0.4,1.1-0.6l1.3-0.5c0.4,0,0.9-0.2,1.4-0.3h1.4h1.1l7.3-2.6l-0.6-4.3c0-0.4,0-0.9-0.2-1.3s0-0.9,0-1.3
	c-0.1-0.7-0.1-1.4,0-2.1c0-0.3,0-0.4,0-0.7c0-0.3,0-0.3,0.2-0.5c0.2-0.2,0-0.3,0.3-0.4l0,0h0.3h0.3h0.4c0.3-0.1,0.7-0.1,1.1,0h0.6
	h0.7c0.5,0,0.9,0,1.4,0l1.5,0.2l1.5,0.4c1.1,0.2,2,0.6,3,1s2.3,0.9,3.4,1.4c1.1,0.5,2,1,3,1.5c1,0.5,1.9,1.1,2.8,1.7l1.3,1
	c0.4,0.3,0.8,0.7,1.2,1.1c0.4,0.3,0.8,0.7,1.1,1.1c0.4,0.4,0.7,0.8,1,1.2c0.3,0.4,0.6,0.8,0.8,1.3c0.3,0.4,0.5,0.9,0.6,1.4
	c0.4,0.9,0.6,1.9,0.7,3c0.1,1,0,2-0.2,3l-0.5,2l1.4,0.3c2.1,0.4,4,1,6.2,1.4c2.2,0.4,4,0.9,6.3,1.3c-1.9-1-3.8-1.9-5.7-2.9l-4-2
	c0.3-0.9,0.6-1.8,0.7-2.7c0.2-1.5,0.2-3,0-4.4c-0.1-0.7-0.3-1.4-0.5-2.1c-0.2-0.7-0.5-1.4-0.8-2.1c-0.3-0.7-0.6-1.3-1-1.9
	c-0.4-0.6-0.8-1.2-1.2-1.8c-0.4-0.6-0.9-1.2-1.3-1.7l-1.5-1.5c-1-1-2.1-1.8-3.1-2.8c-1.1-0.9-2.1-1.5-3.4-2.4
	c-1.3-0.9-2-1.3-3.2-1.9c-1.2-0.6-2.5-1.3-3.8-1.9l-2-0.8l-2.1-0.6c-0.5-0.7-1.1-1.3-1.8-1.9h-1.2h-1.3c-0.9-0.1-1.8-0.1-2.6,0h-1.4
	c-0.5,0.1-1,0.2-1.4,0.4c-0.5,0-1,0.3-1.4,0.5l-1.4,0.8l-0.4,0.2l-2.8-1.7c-2.2-1.3-4.4-2.7-6.7-4c-4.5-2.5-8.9-5.2-13.5-7.6
	l-5.2-2.9l0.2,2.5l-3.3-4.5l-0.9-1.3l-2.2-0.7c-5.9-1.8-11.8-3.4-17.7-5.2l-10.5-2.9l-0.8-0.7l-2.1-0.6c-3.4-0.9-6.5-1.6-9.7-2.3
	c-3.2-0.7-6.4-1.3-9.6-1.8c-3.2-0.5-6.4-1-9.5-1.4c-3.2-0.4-6.5-0.7-9.8-1c-3.2-0.2-6.4-0.4-9.8-0.5c-3.3-0.1-6.5,0-9.8,0
	c-3.3,0-6.6,0-9.8,0.4l-4.9,0.2l-4.9,0.5c-1.6,0-3.3,0.4-4.9,0.7c-1.6,0.2-3.3,0.5-4.9,0.8c-3.3,0.6-6.5,1.3-9.8,2.1
	c-3.2,0.8-6.4,1.7-9.6,2.9c-3.2,1.1-6.3,2.3-9.4,3.6c-3.2,1.3-6.1,2.8-9,4.5c-2.9,1.7-5.8,3.4-8.7,5.3s-5.5,4-8.1,6.3
	c-2.6,2.2-5,4.6-7.3,7l-8.1,8.1l10.7,3c1.8,0.5,3.5,0.9,5.2,1.3l2.5,0.6l-1.7,0.6l-3.7,1.7c-2.5,1-4.9,2.2-7.3,3.5
	c-4.8,2.5-9.3,5.4-13.6,8.6c-2.1,1.6-4.3,3.2-6.3,5c-1,0.9-2,1.7-3,2.6l-2.9,2.8c-1,0.9-1.9,1.9-2.8,2.9c-0.9,1-1.8,1.9-2.7,3
	c-0.8,1.1-1.7,2.1-2.5,3.2c-0.8,1.1-1.6,2.1-2.5,3.4l-2.3,3.3l2.2,2.4c0.8,1,1.7,1.9,2.6,2.7c0.8,0.8,1.7,1.5,2.6,2.2
	c1.7,1.4,3.4,2.6,5.2,3.8c3.5,2.3,7,4.5,10.6,6.7c3.6,2.1,7.2,4,10.8,6.1l1.9,1c-2.1,0.6-4,1.2-6.2,1.9l-7.7,2.7
	c-2.6,0.8-5.1,2-7.6,3c-2.5,1.1-5.1,2.1-7.5,3.4c-2.5,1.3-5,2.3-7.4,3.8s-4.9,2.8-7.2,4.3c-2.4,1.6-4.7,3.2-6.8,5.1
	c-1.1,0.9-2.2,1.8-3.3,2.8l-3.2,3.1c-2.1,2.2-4,4.6-5.6,7.2c-0.4,0.6-0.8,1.4-1.2,2.1c-0.4,0.7-0.8,1.5-1.1,2.2
	c-0.4,0.8-0.7,1.6-0.9,2.5c-0.1,0.5-0.3,0.9-0.4,1.4c-0.1,0.6-0.2,1.3-0.3,1.9L88.9,252.5z M360.8,139.9l-3.2-11.3l-1.8-6.6l8.5,2.8
	l7.4,2.4l2.4,0.7l-1.1,1c-0.7,0.8-1.4,1.6-1.9,2.5c-0.5,0.9-0.9,1.8-1.3,2.7c-0.4,1-0.6,2.1-0.8,3.2l-1.7,0.3
	c-0.9,0.2-1.8,0.4-2.7,0.8c-0.9,0.3-1.8,0.7-2.7,1.1L360.8,139.9z M352,149.8c-3.5-0.8-7-1.7-10.5-2.4c-5-1.1-10-2.1-15-3.1
	s-10-2-15-2.8c-5-0.8-10-1.6-15.1-2.3c-10-1.5-20.2-2.9-30.2-4c-8.4-1.1-16.8-2-25.2-2.9l0.6-0.6l1.5-2.1l-1.9,1.7l-1.5,1l-3.6-0.4
	l-7.6-0.8l-3.8-0.4h-0.9h-1.1h-2l-8.1-0.3c-1.3-0.1-2.7-0.1-4,0l-4,0.2c-3.5,0.2-6.9,0.5-10.4,1.1l-8.1-2.2
	c-2.1-0.7-4.5-1.5-6.9-2.2c1.6-1.1,3.2-2,4.9-3c2.5-1.4,5-2.8,7.7-4c2.7-1.2,5.3-2.3,8.1-3.4c2.8-1.1,5.5-1.9,8.3-2.7
	s5.7-1.5,8.5-2.1s5.7-1.2,8.7-1.6c1.5-0.2,2.9-0.4,4.4-0.6c1.5-0.2,3-0.4,4.4-0.5l4.5-0.4l4.4-0.2c3,0,6-0.3,9-0.3c3,0,6,0,9,0
	s6,0.2,9,0.4s6,0.4,9,0.7c3,0.3,6,0.6,9,1.1c3,0.4,6,0.8,8.9,1.3c2.3,0.4,4.8,0.8,7,1.3l7.5,6.4c3.1,2.6,5.9,5.3,9.3,7.7l21.3,17.4
	l-9.3-25.2l-0.8-2.1l4.6,0.8l5.8,6.2l7.4,7.9l8.7,9.2c-0.6,0.4-1.2,0.9-1.7,1.4l-2.1,2.2c-0.6,0.8-1.1,1.6-1.7,2.4
	C352.8,148.1,352.3,148.9,352,149.8z M315.3,184l-8.1-0.3c-2.7,0-5.3,0-8.1,0c-5.3,0-10.6,0-15.9,0.2c-5.3,0.2-10.6,0.5-15.9,0.7
	c-5.3,0.2-10.6,0.8-15.9,1.3c-5.3,0.5-10.6,0.8-15.9,1.7s-10.6,1.4-15.9,2.1l-8.1,1.1c-2.6,0.4-5.2,0.9-7.8,1.4
	c-5.2,1-10.4,1.9-15.5,2.9l-7.8,1.5l-1.1,0.2l-1,0.2l-2,0.4l-4,0.9l-7.9,1.9l-6.4,1.9l-12.1-10.8c-3.1-2.7-6.1-5.5-8.9-8.1
	c-1.4-1.4-2.9-2.8-4-4l-0.8-0.8c0.8-0.8,1.6-1.5,2.4-2.3s1.8-1.6,2.7-2.4c0.9-0.8,1.8-1.6,2.8-2.3l2.8-2.2l2.9-2.1
	c1.9-1.4,4-2.7,6-4c4.1-2.5,8.3-4.7,12.6-6.6c2.1-1.1,4.4-1.8,6.6-2.7l3.3-1.3l3.4-1c4.5-1.4,9.1-2.5,13.7-3.4
	c4.7-0.8,9.4-1.3,14.1-1.6h3.6c1.2-0.1,2.4-0.1,3.6,0h7.1h2.6h0.9l3.8,0.3l7.6,0.6c10.1,0.8,20.2,1.4,30.4,1.9
	c10.1,0.6,20.2,1,30.4,1.3c5.1,0,10.2,0.2,15.2,0.3l15.2,0.3c5.1,0,10.2,0,15.3,0c3.4,0,6.9,0,10.4,0c-0.2,0.5-0.4,0.9-0.5,1.4
	l-0.7,2.6c-0.2,0.8-0.3,1.7-0.4,2.5v0.5c-1.3,0.2-2.6,0.5-3.8,0.8c-0.9,0.2-1.8,0.5-2.6,0.8c-0.9,0.3-1.8,0.7-2.6,1.1l-1.3,0.6
	l-1.3,0.8c-0.9,0.5-1.7,1.1-2.4,1.7c-0.8,0.6-1.6,1.3-2.3,2.1c-0.7,0.8-1.4,1.5-2,2.3s-1.1,1.7-1.6,2.6c-0.5,0.9-0.9,1.8-1.3,2.8
	c-0.4,0.9-0.7,1.8-0.9,2.8l-0.6,2.8c0,0.4,0,0.8,0,1.1l-1.2,0.8c-0.8,0.6-1.6,1.2-2.3,1.9l-0.9,0.9C320,184.1,317.5,184,315.3,184
	L315.3,184z M136.6,297.6c1.8-1.5,3.6-2.8,5.5-4l2.8-2c1-0.6,2-1.2,3-1.7l3-1.7l3.1-1.4l3.1-1.5l3.5-1.5l7.2-3.2c4.7-1.9,9.3-4,14-6
	l7-3.1l3.2-1.5c0.5-0.2,0.9-0.3,1.3-0.5l1.7-0.6c9.7-3.2,19.3-6.4,28.9-9.8c9.6-3.4,19.2-6.8,28.7-10.4c4.8-1.8,9.5-3.6,14.3-5.5
	c4.8-1.9,9.5-3.8,14.2-5.7c4.7-2,9.4-4,14.1-6l7.6-3.4c0,0.6,0,1.2,0,1.7c0.1,0.9,0.2,1.9,0.4,2.8c0.2,0.9,0.4,1.7,0.7,2.6
	c0.3,0.8,0.6,1.6,0.9,2.4l0.9,1.7l-1.3,1.5c-1.2,1.5-2.3,3.1-3.2,4.8c-0.9,1.7-1.7,3.5-2.2,5.3c-0.3,0.9-0.4,1.9-0.6,2.9
	c0,0.5,0,1,0,1.5c-4.7,0.1-9.4,0.8-14,1.8c-5,1.1-10,2.4-14.8,4c-2.5,0.8-4.9,1.6-7.3,2.4l-7.4,2.8c-4.7,1.9-9.5,4-14.1,6
	c-9.3,4.2-18.4,8.8-27.3,13.8c-4.5,2.4-8.9,5-13.2,7.6c-4.4,2.6-8.7,5.3-13,8.1c-4.2,2.8-8.5,5.7-12.7,8.7c-4.2,3-8.1,6.1-12.1,9.3
	s-8.1,6.6-11.9,10.2c-1.9,1.8-3.8,3.6-5.7,5.6c-0.9,1-1.9,1.9-2.8,3l0,0h-2.6c-4,0-8.4-0.5-12.6-0.8c-4.1-0.3-8.1-0.9-12.1-1.7
	c-1.9-0.4-3.7-0.9-5.5-1.5l-0.6-0.2l1.3-3.3l1.7-3.2l1.8-3.1c2.5-4.1,5.2-8.1,8.1-11.9c1.5-1.9,3-3.7,4.5-5.5s3.2-3.5,4.9-5.1
	C133,300.6,134.7,299,136.6,297.6z M100.4,250.3l0.4-0.7c0.2-0.4,0.5-0.9,0.8-1.3c0.3-0.4,0.6-0.8,0.9-1.3s1.3-1.7,2.2-2.5
	c0.8-0.8,1.6-1.6,2.5-2.3l2.7-2.2c0.9-0.7,2-1.4,3-2.1c1.9-1.4,4-2.5,6.2-3.8c2.1-1.3,4.4-2.3,6.6-3.4c1.1-0.6,2.3-1.1,3.4-1.5
	l3.4-1.5c2.3-1.1,4.7-1.9,7.1-2.8c2.4-0.9,4.7-1.8,7.2-2.5l7.3-2.3c2.4-0.8,4.9-1.3,7.4-2.1l7.4-2.1l7.5-1.7l3.8-0.9l1.9-0.4
	l0.9-0.2h0.8l7.8-1.6c5.2-1.1,10.3-2.2,15.5-3.3l7.7-1.7l7.7-1.5c5.1-1,10.2-2,15.3-3l3.8-0.8l4-0.7l7.7-1.4
	c5.2-0.9,10.3-2,15.5-2.9c5.2-0.8,10.4-1.8,15.5-2.7c2.7-0.5,5.3-0.9,7.8-1.3l7.8-1.3l20.2-3.4c-0.3,0.4-0.6,0.7-0.8,1.1
	c-0.6,0.8-1.1,1.7-1.6,2.6c-0.5,0.9-0.9,1.8-1.2,2.8c-0.3,1-0.6,1.9-0.9,2.9l-0.5,2.9c-0.1,1-0.1,1.9,0,2.9c-0.1,0.9-0.1,1.9,0,2.8
	l0.3,2.8c0.1,0.9,0.3,1.8,0.5,2.6l0.2,0.9c-1,0.4-2,0.8-2.9,1.3c-1.8,0.9-3.4,2-4.9,3.2c-1.7,1.4-3,3.1-4,5c-0.5,1-0.9,2-1.2,3
	c-0.2,0.8-0.3,1.6-0.4,2.5l-8.8,1.7c-5,0.9-10,2-15,3.1s-10,2.1-14.9,3.3c-5,1.2-9.9,2.3-14.9,3.6c-9.9,2.5-19.7,5-29.5,7.7
	s-19.6,5.2-29.4,8.1l-2,0.6c-0.8,0.2-1.7,0.5-2.3,0.7l-3.8,1.6l-7,3l-14,5.9l-7,3l-3.5,1.5l-3.8,1.9l-3.8,1.9l-3.6,2.2l-1.4,0.9
	c-2-0.9-4-1.7-5.9-2.6c-1.1-0.5-2.3-1.1-3.4-1.6c-1.1-0.6-2.3-1.1-3.4-1.7l-3.3-1.8l-3-1.9c-1.1-0.6-2.1-1.3-3.1-2
	c-1-0.7-2-1.4-3-2.1c-0.9-0.8-1.9-1.5-2.9-2.2l-2.7-2.3c-0.9-0.8-1.6-1.7-2.5-2.5l-1.2-1.3l-1.1-1.3c-0.7-0.9-1.4-1.8-1.9-2.7
	L100.4,250.3z"/>
<text transform="matrix(1 0 0 1 702.6455 334.0793)"><tspan x="0" y="0" class="st2 st3 st4">Fairglen</tspan><tspan x="-62.2" y="110.6" class="st2 st3 st4">Elementary</tspan></text>
<text transform="matrix(1 0 0 1 624.8525 184.3195)" class="st2 st5 st4">Mrs. Nelson</text>
</svg>
